<svg width="44" height="45" viewBox="0 0 44 45" fill="none" xmlns="http://www.w3.org/2000/svg">
<g clip-path="url(#clip0_1_149)">
<path d="M26.3681 44.0299C26.7018 44.0299 27.0268 43.9243 27.2964 43.7283C27.566 43.5323 27.7662 43.2561 27.8683 42.9393L29.6017 37.5682C30.3297 37.213 31.0262 36.8139 31.6912 36.3645L37.2255 37.5525C37.5518 37.6219 37.8918 37.5863 38.1965 37.4508C38.5012 37.3152 38.7549 37.0867 38.9211 36.7982L43.2892 29.2585C43.456 28.9701 43.5267 28.6363 43.491 28.3053C43.4553 27.9743 43.3151 27.6632 43.0907 27.4168L39.2929 23.2368C39.3482 22.4352 39.3482 21.6309 39.2929 20.8293L43.0907 16.643C43.3151 16.3966 43.4553 16.0855 43.491 15.7545C43.5267 15.4235 43.456 15.0897 43.2892 14.8013L38.9211 7.25848C38.7545 6.97052 38.5006 6.74266 38.1959 6.60769C37.8912 6.47272 37.5514 6.43758 37.2255 6.50734L31.6912 7.69534C31.0294 7.24905 30.3297 6.84678 29.6049 6.49163L27.8683 1.12048C27.7662 0.803749 27.566 0.527496 27.2964 0.331513C27.0268 0.135529 26.7018 0.0299263 26.3681 0.0299149H17.6319C17.2982 0.0299263 16.9732 0.135529 16.7036 0.331513C16.434 0.527496 16.2338 0.803749 16.1317 1.12048L14.4014 6.48848C13.6754 6.84255 12.975 7.24686 12.3056 7.69848L6.77452 6.50734C6.44821 6.43787 6.10822 6.47347 5.80351 6.60903C5.49879 6.74459 5.24509 6.97308 5.07895 7.26162L0.710798 14.8013C0.543997 15.0897 0.473345 15.4235 0.50903 15.7545C0.544715 16.0855 0.684892 16.3966 0.90935 16.643L4.70705 20.8293C4.65204 21.6288 4.65204 22.431 4.70705 23.2305L0.90935 27.4168C0.684892 27.6632 0.544715 27.9743 0.50903 28.3053C0.473345 28.6363 0.543997 28.9701 0.710798 29.2585L5.07895 36.8013C5.24555 37.0893 5.49945 37.3172 5.80413 37.4521C6.1088 37.5871 6.44855 37.6222 6.77452 37.5525L12.3056 36.3613C12.9738 36.8108 13.6734 37.2162 14.4014 37.5713L16.1348 42.9393C16.2366 43.255 16.4359 43.5306 16.7042 43.7265C16.9726 43.9223 17.2962 44.0286 17.6287 44.0299H26.365H26.3681ZM25.2147 40.887H18.7853L16.9952 35.3336L15.7882 34.7459C15.1948 34.4563 14.6219 34.1266 14.0737 33.759L12.958 33.0048L7.23465 34.2368L4.02 28.6802L7.94377 24.3493L7.84922 23.0168C7.80394 22.3596 7.80394 21.7002 7.84922 21.043L7.94377 19.7105L4.0137 15.3796L7.2315 9.82306L12.9548 11.0519L14.0705 10.3008C14.6188 9.93321 15.1916 9.6035 15.785 9.31392L16.9921 8.7262L18.7853 3.17277H25.221L27.0174 8.72935L28.2213 9.31392C28.814 9.60282 29.3859 9.93256 29.9326 10.3008L31.0452 11.0519L36.7717 9.82306L39.9863 15.3796L36.0594 19.7105L36.1539 21.043C36.1994 21.7012 36.1994 22.3617 36.1539 23.0199L36.0594 24.3525L39.9895 28.6802L36.7717 34.2368L31.0452 33.011L29.9326 33.759C29.3859 34.1273 28.8141 34.4571 28.2213 34.7459L27.0174 35.3305L25.2178 40.887H25.2147ZM22 31.4585C24.5076 31.4585 26.9125 30.4651 28.6856 28.6969C30.4587 26.9287 31.4549 24.5305 31.4549 22.0299C31.4549 19.5293 30.4587 17.1311 28.6856 15.3629C26.9125 13.5947 24.5076 12.6013 22 12.6013C19.4924 12.6013 17.0875 13.5947 15.3144 15.3629C13.5413 17.1311 12.5451 19.5293 12.5451 22.0299C12.5451 24.5305 13.5413 26.9287 15.3144 28.6969C17.0875 30.4651 19.4924 31.4585 22 31.4585ZM22 28.3156C20.3283 28.3156 18.725 27.6534 17.5429 26.4746C16.3608 25.2958 15.6968 23.697 15.6968 22.0299C15.6968 20.3628 16.3608 18.764 17.5429 17.5852C18.725 16.4064 20.3283 15.7442 22 15.7442C23.6717 15.7442 25.275 16.4064 26.4571 17.5852C27.6392 18.764 28.3032 20.3628 28.3032 22.0299C28.3032 23.697 27.6392 25.2958 26.4571 26.4746C25.275 27.6534 23.6717 28.3156 22 28.3156Z" fill="white"/>
</g>
<defs>
<clipPath id="clip0_1_149">
<rect width="43" height="44" fill="white" transform="translate(0.5 0.0299149)"/>
</clipPath>
</defs>
</svg>
