<svg width="40" height="45" viewBox="0 0 40 45" fill="none" xmlns="http://www.w3.org/2000/svg">
<g clip-path="url(#clip0_1_165)">
<path d="M10.4296 6.30307C11.6582 4.16942 13.5687 2.508 15.8557 1.58441C18.1427 0.660812 20.6743 0.528365 23.0458 1.20824C25.4172 1.88811 27.4916 3.34104 28.9374 5.3348C30.3831 7.32854 31.1167 9.74801 31.0209 12.2064C30.9252 14.6649 30.0056 17.0203 28.4091 18.8962C26.8127 20.7722 24.6316 22.0604 22.2143 22.5548C19.7971 23.0493 17.2836 22.7214 15.0752 21.6238C12.8669 20.5261 11.0913 18.722 10.0325 16.4998C9.32506 17.0157 8.47093 17.2932 7.5944 17.2918H6.2154V17.993C6.2154 18.5155 6.41397 18.9912 6.73942 19.3514C7.01753 19.0379 7.38481 18.8164 7.79236 18.7163C8.19991 18.6162 8.62838 18.6421 9.02072 18.7908C9.41308 18.9396 9.75066 19.204 9.98862 19.5487C10.2265 19.8935 10.3534 20.3023 10.3524 20.7209C10.3522 21.0083 10.2918 21.2925 10.1749 21.5553C10.0581 21.818 9.88751 22.0535 9.67407 22.2467C9.46059 22.4398 9.20899 22.5864 8.9354 22.6769C8.66181 22.7674 8.37226 22.7999 8.08534 22.7724C6.84316 22.7288 5.66643 22.2063 4.80312 21.3147C3.9398 20.4231 3.45733 19.2323 3.45738 17.993V7.67529C3.45738 7.31062 3.60267 6.9609 3.86128 6.70304C4.11989 6.44519 4.47065 6.30033 4.83639 6.30033H10.3524L10.4296 6.30307ZM11.7315 12.1081C11.8173 14.2661 12.7485 16.3044 14.325 17.7854C15.9015 19.2663 17.9975 20.0718 20.1631 20.029C22.3286 19.9862 24.3911 19.0984 25.9074 17.5562C27.4237 16.0141 28.273 13.9406 28.273 11.7809C28.273 9.62128 27.4237 7.54776 25.9074 6.00561C24.3911 4.46345 22.3286 3.57563 20.1631 3.53279C17.9975 3.48995 15.9015 4.2955 14.325 5.77648C12.7485 7.25745 11.8173 9.29575 11.7315 11.4537V12.1081ZM8.97342 11.4014V9.05025H6.2154V14.5419H7.5944C7.96014 14.5419 8.3109 14.397 8.56952 14.1391C8.82813 13.8812 8.97342 13.5316 8.97342 13.1669V12.1604C8.96482 11.9075 8.96482 11.6544 8.97342 11.4014ZM0.693848 31.0304C0.693848 27.9697 3.18434 25.5305 6.2347 25.5305H33.79C35.253 25.5305 36.656 26.1099 37.6905 27.1414C38.7249 28.1728 39.3061 29.5717 39.3061 31.0304C39.3061 35.6804 37.0087 39.1866 33.4177 41.4717C29.8819 43.7184 25.1161 44.7799 20 44.7799C14.8838 44.7799 10.118 43.7184 6.58221 41.4717C2.99128 39.1893 0.693848 35.6777 0.693848 31.0304ZM6.2347 28.2804C4.68746 28.2804 3.45187 29.5097 3.45187 31.0304C3.45187 34.63 5.16736 37.3111 8.06603 39.1509C11.0171 41.029 15.2148 42.03 20 42.03C24.7851 42.03 28.9828 41.029 31.9339 39.1509C34.8299 37.3083 36.5481 34.6327 36.5481 31.0304C36.5481 30.301 36.2575 29.6015 35.7403 29.0858C35.2231 28.5701 34.5215 28.2804 33.79 28.2804H6.2347Z" fill="white"/>
</g>
<defs>
<clipPath id="clip0_1_165">
<rect width="38.6122" height="44" fill="white" transform="translate(0.693848 0.779907)"/>
</clipPath>
</defs>
</svg>
