<svg width="200" height="60" viewBox="0 0 200 60" fill="none" xmlns="http://www.w3.org/2000/svg">
<g clip-path="url(#clip0_1_78)">
<path fill-rule="evenodd" clip-rule="evenodd" d="M124.036 46.4943C112.416 54.9459 95.5765 59.4549 81.0774 59.4549C60.7469 59.4549 42.4443 52.0344 28.5981 39.6923C27.5102 38.7218 28.4849 37.3991 29.7904 38.1549C44.7335 46.7351 63.2101 51.8969 82.2958 51.8969C95.1674 51.8969 109.328 49.2687 122.347 43.815C124.314 42.9903 125.959 45.0859 124.036 46.4943Z" fill="#B4B2C9"/>
<path fill-rule="evenodd" clip-rule="evenodd" d="M128.866 41.0407C127.386 39.1683 119.049 40.156 115.306 40.5941C114.166 40.7315 113.992 39.7525 115.019 39.0481C121.659 34.436 132.556 35.7673 133.826 37.3132C135.097 38.8678 133.496 49.6465 127.255 54.7909C126.298 55.5813 125.385 55.1606 125.811 54.1126C127.212 50.6602 130.354 42.9218 128.866 41.0407Z" fill="#B4B2C9"/>
<path fill-rule="evenodd" clip-rule="evenodd" d="M115.568 6.48834V2.00504C115.568 1.32653 116.09 0.871338 116.717 0.871338H137.055C137.708 0.871338 138.23 1.33513 138.23 2.00504V5.8442C138.222 6.48834 137.672 7.33003 136.698 8.66126L126.159 23.5111C130.076 23.4167 134.209 23.992 137.76 25.9675C138.561 26.4141 138.778 27.0668 138.839 27.7109V32.4948C138.839 33.1476 138.108 33.912 137.343 33.517C131.085 30.279 122.773 29.9268 115.854 33.5512C115.149 33.9292 114.41 33.1733 114.41 32.5207V27.9772C114.41 27.2471 114.418 26.0018 115.158 24.8938L127.369 7.61345H116.743C116.09 7.61345 115.568 7.15825 115.568 6.48834Z" fill="#B4B2C9"/>
<path fill-rule="evenodd" clip-rule="evenodd" d="M41.3742 34.4616H35.1863C34.5945 34.4187 34.1245 33.9808 34.081 33.4224V2.08234C34.081 1.45538 34.6119 0.957226 35.2733 0.957226H41.0434C41.6439 0.982975 42.1226 1.43819 42.1661 2.00505V6.10186H42.279C43.7849 2.14246 46.6134 0.295898 50.4251 0.295898C54.2983 0.295898 56.7175 2.14246 58.4582 6.10186C59.9552 2.14246 63.3582 0.295898 67.0045 0.295898C69.5978 0.295898 72.4351 1.35231 74.1669 3.72279C76.1251 6.35952 75.7251 10.1901 75.7251 13.5482L75.7163 33.3279C75.7163 33.9549 75.1853 34.4616 74.5238 34.4616H68.3448C67.7267 34.4187 67.2309 33.9292 67.2309 33.3279V16.7174C67.2309 15.3948 67.3526 12.0968 67.0569 10.8428C66.5954 8.73856 65.2117 8.14594 63.4188 8.14594C61.9222 8.14594 60.3552 9.13363 59.7201 10.714C59.0849 12.2943 59.1456 14.9396 59.1456 16.7174V33.3279C59.1456 33.9549 58.6146 34.4616 57.9535 34.4616H51.7741C51.1477 34.4187 50.6602 33.9292 50.6602 33.3279L50.6515 16.7174C50.6515 13.2218 51.2347 8.07724 46.8397 8.07724C42.3924 8.07724 42.5665 13.093 42.5665 16.7174V33.3279C42.5665 33.9549 42.0356 34.4616 41.3742 34.4616Z" fill="#B4B2C9"/>
<path fill-rule="evenodd" clip-rule="evenodd" d="M155.741 0.295898C164.922 0.295898 169.892 8.07724 169.892 17.9715C169.892 27.5306 164.4 35.1144 155.741 35.1144C146.724 35.1144 141.815 27.3331 141.815 17.6364C141.815 7.8797 146.785 0.295898 155.741 0.295898ZM155.792 6.69447C151.232 6.69447 150.945 12.8268 150.945 16.6488C150.945 20.4792 150.884 28.6557 155.741 28.6557C160.536 28.6557 160.762 22.0596 160.762 18.0401C160.762 15.3948 160.649 12.2342 159.84 9.72624C159.144 7.54474 157.759 6.69447 155.792 6.69447Z" fill="#B4B2C9"/>
<path fill-rule="evenodd" clip-rule="evenodd" d="M181.798 34.4616H175.636C175.017 34.4187 174.522 33.9292 174.522 33.3279L174.514 1.97928C174.565 1.40383 175.079 0.957226 175.706 0.957226H181.441C181.981 0.982975 182.424 1.34373 182.546 1.83327V6.62577H182.659C184.391 2.34001 186.818 0.295898 191.092 0.295898C193.869 0.295898 196.575 1.2836 198.316 3.98903C199.934 6.49694 199.934 10.714 199.934 13.7457V33.474C199.865 34.0237 199.351 34.4616 198.743 34.4616H192.537C191.971 34.4187 191.502 34.0065 191.44 33.474V16.4511C191.44 13.0243 191.841 8.00853 187.568 8.00853C186.062 8.00853 184.678 9.00481 183.99 10.5164C183.12 12.4317 183.008 14.3384 183.008 16.4511V33.3279C182.999 33.9549 182.459 34.4616 181.798 34.4616Z" fill="#B4B2C9"/>
<path fill-rule="evenodd" clip-rule="evenodd" d="M99.3536 19.4916C99.3536 21.8707 99.4147 23.8547 98.1962 25.9675C97.213 27.6853 95.6461 28.7417 93.9143 28.7417C91.5385 28.7417 90.1461 26.9552 90.1461 24.3185C90.1461 19.1138 94.8716 18.169 99.3536 18.169V19.4916ZM105.594 34.3759C105.185 34.7366 104.593 34.7623 104.132 34.5218C102.078 32.8385 101.703 32.0569 100.581 30.4508C97.1866 33.8692 94.7758 34.8912 90.3808 34.8912C85.1678 34.8912 81.121 31.7219 81.121 25.3749C81.121 20.4192 83.8364 17.0439 87.7176 15.3949C91.077 13.9348 95.7682 13.6772 99.3536 13.2735V12.4833C99.3536 11.0319 99.4669 9.31407 98.5966 8.06013C97.8481 6.93502 96.4034 6.47123 95.1239 6.47123C92.7657 6.47123 90.6682 7.66505 90.1548 10.1386C90.0503 10.6883 89.641 11.2294 89.0754 11.2551L83.0791 10.6196C82.5745 10.5079 82.0088 10.1042 82.1565 9.33983C83.5318 2.15971 90.1114 -0.00463867 95.9942 -0.00463867C99.0054 -0.00463867 102.939 0.785524 105.315 3.03575C108.326 5.80987 108.039 9.5116 108.039 13.5396V23.056C108.039 25.916 109.24 27.1699 110.372 28.7159C110.763 29.2656 110.85 29.9269 110.346 30.3392C109.083 31.3783 106.838 33.3108 105.602 34.393L105.594 34.3759Z" fill="#B4B2C9"/>
<path fill-rule="evenodd" clip-rule="evenodd" d="M18.2329 19.4917C18.2329 21.8707 18.2937 23.8547 17.0753 25.9676C16.0919 27.6853 14.5341 28.7416 12.7934 28.7416C10.4175 28.7416 9.03372 26.9552 9.03372 24.3185C9.03372 19.1137 13.7595 18.169 18.2329 18.169V19.4917ZM24.4729 34.3759C24.0639 34.7365 23.472 34.7624 23.0108 34.5218C20.9569 32.8385 20.5914 32.0569 19.46 30.4508C16.0657 33.8691 13.6637 34.8911 9.26 34.8911C4.0556 34.8911 0 31.7219 0 25.3749C0 20.4192 2.72404 17.0439 6.59691 15.3949C9.95624 13.9348 14.6472 13.6772 18.2329 13.2735V12.4832C18.2329 11.0318 18.3459 9.31406 17.4843 8.06012C16.7272 6.93502 15.2825 6.47123 14.0119 6.47123C11.6533 6.47123 9.5472 7.66505 9.03372 10.1386C8.92929 10.6883 8.52025 11.2294 7.96326 11.2551L1.95818 10.6196C1.45341 10.5079 0.89641 10.1043 1.03566 9.33986C2.41944 2.15971 8.99021 -0.00463867 14.8735 -0.00463867C17.8846 -0.00463867 21.8185 0.785521 24.1944 3.03575C27.2056 5.80992 26.9184 9.51163 26.9184 13.5398V23.056C26.9184 25.916 28.1195 27.1699 29.2508 28.7159C29.6511 29.2655 29.7382 29.9269 29.2334 30.3391C27.9715 31.3784 25.7261 33.3109 24.4903 34.3931L24.4729 34.3759Z" fill="#B4B2C9"/>
</g>
<defs>
<clipPath id="clip0_1_78">
<rect width="200" height="59.4595" fill="white" transform="translate(0 -0.00463867)"/>
</clipPath>
</defs>
</svg>
