<svg width="200" height="53" viewBox="0 0 200 53" fill="none" xmlns="http://www.w3.org/2000/svg">
<g id="01.svg" clip-path="url(#clip0_1_46)">
<path id="Vector" d="M86.069 34.5906L83.9209 41.2151C83.8927 41.3224 83.8286 41.4168 83.7389 41.4824C83.6495 41.548 83.54 41.5808 83.429 41.5754H78.2147C77.9026 41.5754 77.8104 41.3952 77.8587 41.1357L86.8159 15.284C87.1142 14.4042 87.2626 13.4806 87.2551 12.5516C87.2515 12.4752 87.2771 12.4002 87.3268 12.3423C87.3769 12.2842 87.4471 12.2475 87.5232 12.2397H94.6879C94.9122 12.2397 95 12.2837 95.0486 12.5077L105.213 41.1711C105.301 41.3952 105.257 41.5754 104.989 41.5754H99.1776C99.071 41.5934 98.9608 41.5717 98.8692 41.514C98.7776 41.4565 98.7103 41.3671 98.6813 41.2633L96.3972 34.5906H86.069ZM94.758 28.9897C93.8794 26.0333 92.0698 20.6169 91.2221 17.4365H91.1781C90.4575 20.4368 88.8455 25.3436 87.6637 28.9897H94.758Z" fill="#B4B2C9"/>
<path id="Vector_2" d="M105.929 30.6458C105.929 24.241 110.721 18.8686 118.919 18.8686C119.275 18.8686 119.722 18.9125 120.394 18.9564V10.1356C120.39 10.0934 120.394 10.0507 120.408 10.0106C120.422 9.97052 120.445 9.93416 120.475 9.90407C120.505 9.87407 120.541 9.85127 120.581 9.83734C120.621 9.82341 120.664 9.81874 120.707 9.8237H126.351C126.576 9.8237 126.62 9.91155 126.62 10.0916V36.5585C126.607 37.6509 126.668 38.7427 126.8 39.8268C126.8 40.0509 126.756 40.1431 126.488 40.2311C123.696 41.4171 120.695 42.0268 117.663 42.0232C111.034 42.0232 105.929 38.263 105.929 30.6458ZM120.394 24.2893C119.861 24.1147 119.299 24.0388 118.738 24.0653C115.29 24.0653 112.334 26.1695 112.334 30.3339C112.334 34.7662 114.886 36.6946 118.291 36.6946C119.002 36.7245 119.713 36.6342 120.394 36.4266V24.2893Z" fill="#B4B2C9"/>
<path id="Vector_3" d="M152.269 30.3337C152.269 37.3621 147.701 42.0231 141.251 42.0231C133.591 42.0231 130.191 36.2466 130.191 30.4699C130.191 24.1091 134.443 18.8684 141.34 18.8684C148.553 18.8684 152.269 24.2892 152.269 30.3337ZM136.504 30.3777C136.504 34.3312 138.339 36.8264 141.336 36.8264C143.936 36.8264 145.904 34.5905 145.904 30.4699C145.904 26.9557 144.472 24.0651 141.072 24.0651C138.476 24.0651 136.504 26.3934 136.504 30.3777Z" fill="#B4B2C9"/>
<path id="Vector_4" d="M161.683 9.82373C162.039 9.82373 162.122 9.86766 162.122 10.1795V19.3606C163.349 19.0322 164.613 18.8668 165.882 18.8686C172.472 18.8686 176.632 23.5249 176.632 29.5256C176.632 37.9028 170.003 42.0233 163.199 42.0233C160.817 42.0398 158.447 41.6918 156.17 40.9909C156.091 40.9474 156.024 40.8839 155.978 40.8068C155.931 40.7297 155.905 40.6419 155.902 40.5518V10.1356C155.902 9.91158 155.99 9.82373 156.214 9.82373H161.683ZM164.758 24.1532C163.866 24.142 162.978 24.2635 162.122 24.5134V36.6727C162.665 36.7963 163.221 36.8554 163.778 36.8485C167.183 36.8485 170.271 34.7882 170.271 30.1319C170.28 26.0333 167.907 24.1532 164.771 24.1532H164.758Z" fill="#B4B2C9"/>
<path id="Vector_5" d="M185.395 32.0821C185.62 34.6343 187.412 36.7384 191.8 36.7384C193.688 36.7749 195.563 36.4236 197.309 35.7062C197.446 35.6183 197.578 35.6622 197.578 35.9302V40.1869C197.578 40.4986 197.49 40.6262 197.265 40.7227C195.473 41.5751 193.505 42.0407 190.412 42.0407C181.992 42.0407 179.039 36.2639 179.039 30.7115C179.039 24.5308 182.844 18.886 189.877 18.886C196.637 18.886 199.325 24.1266 199.325 28.5502C199.357 29.5554 199.282 30.5612 199.101 31.5506C199.095 31.644 199.055 31.7322 198.989 31.7984C198.923 31.8647 198.835 31.9046 198.741 31.9108C197.208 32.0556 195.668 32.1157 194.129 32.0908L185.395 32.0821ZM191.221 27.7376C191.967 27.7649 192.715 27.734 193.457 27.6453V27.3335C193.444 26.8497 193.335 26.3736 193.136 25.9325C192.936 25.4915 192.651 25.0947 192.297 24.7651C191.943 24.4353 191.527 24.1796 191.073 24.0127C190.619 23.8458 190.135 23.771 189.652 23.7928C186.832 23.7928 185.62 25.9013 185.351 27.7464L191.221 27.7376Z" fill="#B4B2C9"/>
<path id="Vector_6" d="M36.9572 -0.00317383H58.627V51.8808L36.9572 -0.00317383Z" fill="#B4B2C9"/>
<path id="Vector_7" d="M21.6875 -0.00317383H0V51.8808L21.6875 -0.00317383Z" fill="#B4B2C9"/>
<path id="Vector_8" d="M29.3221 19.1189L43.1288 51.8808H34.0796L29.9504 41.4478H19.8468L29.3221 19.1189Z" fill="#B4B2C9"/>
</g>
<defs>
<clipPath id="clip0_1_46">
<rect width="200" height="52.3364" fill="white" transform="translate(0 -0.00317383)"/>
</clipPath>
</defs>
</svg>
