<svg width="200" height="47" viewBox="0 0 200 47" fill="none" xmlns="http://www.w3.org/2000/svg">
<rect width="200" height="47" fill="#1E1E1E"/>
<g id="Home-page">
<path d="M-461 -893C-461 -894.105 -460.105 -895 -459 -895H1177C1178.1 -895 1179 -894.105 1179 -893V5102.28C1179 5103.38 1178.1 5104.28 1177 5104.28H-459C-460.105 5104.28 -461 5103.38 -461 5102.28V-893Z" fill="white"/>
<path d="M-459 -894H1177V-896H-459V-894ZM1178 -893V5102.28H1180V-893H1178ZM1177 5103.28H-459V5105.28H1177V5103.28ZM-460 5102.28V-893H-462V5102.28H-460ZM-459 5103.28C-459.552 5103.28 -460 5102.83 -460 5102.28H-462C-462 5103.94 -460.657 5105.28 -459 5105.28V5103.28ZM1178 5102.28C1178 5102.83 1177.55 5103.28 1177 5103.28V5105.28C1178.66 5105.28 1180 5103.94 1180 5102.28H1178ZM1177 -894C1177.55 -894 1178 -893.552 1178 -893H1180C1180 -894.657 1178.66 -896 1177 -896V-894ZM-459 -896C-460.657 -896 -462 -894.657 -462 -893H-460C-460 -893.552 -459.552 -894 -459 -894V-896Z" fill="black" fill-opacity="0.1"/>
<g id="1440w light">
<rect width="1440" height="5799.28" transform="translate(-361 -795)" fill="white"/>
<g id="Main">
<g id="Slider">
<g id="brand 02" clip-path="url(#clip0_0_1)">
<g id="02.svg fill" clip-path="url(#clip1_0_1)">
<g id="02.svg" clip-path="url(#clip2_0_1)">
<path id="Vector" d="M105.333 27.8411C100.286 27.8411 96.2864 31.778 96.2864 36.9632C96.2864 42.1484 100.381 46.0853 105.333 46.0853C110.381 46.0853 114.381 42.0523 114.381 36.9632C114.381 31.778 110.381 27.8411 105.333 27.8411ZM105.333 31.49C108.381 31.49 110.667 33.7945 110.667 36.9632C110.667 40.1319 108.286 42.4365 105.333 42.4365C102.286 42.4365 100 40.1319 100 36.9632C99.9053 33.7945 102.286 31.49 105.333 31.49Z" fill="#B4B2C9"/>
<path id="Vector_2" d="M180.667 40.2277V31.8738H184.952V28.225H180.667V23.3279L176.952 24.4801V28.225H173.81V31.8738H176.952V40.2277C176.952 44.7408 179.238 46.3731 184.952 45.605V42.2442C182.095 42.4363 180.667 42.4363 180.667 40.2277Z" fill="#B4B2C9"/>
<path id="Vector_3" d="M199.905 42.1482H191.429L199.905 31.8738V28.417H186.762V31.8738H195.239L186.762 42.1482V45.7009H199.905V42.1482Z" fill="#B4B2C9"/>
<path id="Vector_4" d="M51.619 1.14689L55.4286 -0.00537109V24.2882H51.619V22.9438C49.9048 24.1922 47.7142 24.8643 45.3333 24.6722C41.1428 24.2882 37.619 20.8314 37.2381 16.5104C37.2381 16.1263 37.1428 15.8383 37.1428 15.4541C37.1428 15.1661 37.1428 14.878 37.2381 14.5899C37.2381 14.494 37.2381 14.494 37.2381 14.3979V14.3019V14.2059C37.2381 14.0138 37.3333 13.8218 37.3333 13.6298C37.3333 13.5337 37.3333 13.4377 37.4286 13.4377V13.3417V13.2457C37.4286 13.0536 37.5238 12.9576 37.5238 12.7656C37.5238 12.6695 37.619 12.5735 37.619 12.4775V12.3815C37.7142 12.1894 37.7142 12.0934 37.8095 11.9014C37.8095 11.8053 37.9048 11.7093 37.9048 11.6133C37.9048 11.6133 37.9048 11.6133 37.9048 11.5173C38 11.3252 38.0952 11.2292 38.0952 11.0372C38.1904 10.9411 38.1904 10.8451 38.2857 10.7491C38.3809 10.6531 38.4761 10.4611 38.5714 10.365C38.6667 10.269 38.7619 10.173 38.8571 10.0769C38.9523 9.98088 39.0476 9.78887 39.1428 9.69282C39.2381 9.59685 39.3333 9.5008 39.4286 9.40475C39.5238 9.30879 39.619 9.21274 39.8095 9.02072C39.9048 8.92467 40 8.82862 40.0952 8.73265C40.1904 8.63661 40.3809 8.54056 40.4761 8.44459C40.8571 8.25249 40.9523 8.1565 41.0476 8.06047C41.1428 7.96445 41.3333 7.86843 41.4286 7.77241H41.5238C41.619 7.67638 41.7142 7.67638 41.8095 7.58037C42 7.48434 42.0952 7.38832 42.2857 7.38832H42.3809C42.4761 7.38832 42.5714 7.2923 42.6667 7.2923C42.8571 7.19628 42.9523 7.19628 43.1428 7.10025H43.2381C43.3333 7.10025 43.4286 7.00423 43.5238 7.00423C43.7142 6.90821 43.8095 6.90821 44 6.90821H44.0952H44.1904C44.2857 6.90821 44.3809 6.90821 44.4761 6.81218C44.6667 6.81218 44.8571 6.71617 45.0476 6.71617H45.1428C45.2381 6.71617 45.2381 6.71617 45.3333 6.71617C45.619 6.71617 46 6.62014 46.2857 6.62014C48.2857 6.62014 50.0952 7.2923 51.619 8.34854V1.14689ZM45.1428 20.8314C48.5714 21.5996 51.619 18.9109 51.619 15.6462V15.5502C51.619 12.5735 49.2381 10.173 46.2857 10.173C46.0952 10.173 45.9048 10.173 45.7142 10.173H45.619C45.619 10.173 45.619 10.173 45.5238 10.173C45.4286 10.173 45.2381 10.173 45.1428 10.269H45.0476C44.9523 10.269 44.8571 10.365 44.7619 10.365C44.6667 10.365 44.5714 10.461 44.5714 10.461C44.4761 10.461 44.3809 10.557 44.2857 10.557C44.1904 10.557 44.1904 10.6531 44.0952 10.6531C44 10.7491 43.9048 10.7491 43.8095 10.8451C43.7142 10.8451 43.7142 10.9411 43.619 10.9411C43.5238 11.0372 43.4286 11.0372 43.3333 11.1331C43.3333 11.1331 43.3333 11.1331 43.2381 11.1331L43.1428 11.2292C43.0476 11.3252 42.9523 11.4212 42.8571 11.5173C42.8571 11.5173 42.8571 11.5173 42.7619 11.6133C42.6667 11.7093 42.4761 11.9014 42.3809 11.9973C42.2857 12.0934 42.1904 12.2854 42.0952 12.3815C42.0952 12.3815 42.0952 12.4775 42 12.4775C42 12.4775 42 12.4775 42 12.5735C41.9048 12.6695 41.9048 12.7656 41.8095 12.8615C41.8095 12.9576 41.7142 12.9576 41.7142 13.0536C41.619 13.1496 41.619 13.2457 41.619 13.3417C41.619 13.4377 41.5238 13.4377 41.5238 13.5337C41.5238 13.6298 41.4286 13.7257 41.4286 13.8218C41.4286 13.9178 41.4286 14.0138 41.3333 14.0138C41.3333 14.1099 41.3333 14.2059 41.2381 14.3979C41.2381 14.494 41.2381 14.5899 41.2381 14.5899C41.2381 14.686 41.2381 14.878 41.2381 14.9741V15.0701C41.2381 15.1661 41.2381 15.1661 41.2381 15.2621C41.2381 15.6462 41.2381 16.0303 41.3333 16.5104C41.5238 18.815 43.1428 20.4473 45.1428 20.8314Z" fill="#B4B2C9"/>
<path id="Vector_5" d="M14.7621 7.00435V8.15662C13.3334 7.10037 11.4287 6.42822 9.52394 6.42822C4.19059 6.42822 -0.095125 11.1333 0.476303 16.6065C0.952496 20.8315 4.38106 24.2883 8.57152 24.7684C10.9525 24.9604 13.143 24.2883 14.8573 23.04V24.3843H18.6667V7.00435H14.7621ZM14.7621 15.6464C14.7621 19.0071 11.7144 21.5997 8.28584 20.8315C6.28582 20.4474 4.66678 18.8151 4.19059 16.7026C3.52392 13.2458 6.19059 10.1731 9.52394 10.1731C12.3811 10.1731 14.7621 12.5736 14.7621 15.6464Z" fill="#B4B2C9"/>
<path id="Vector_6" d="M124.857 28.033V32.0659C122.381 31.8738 119.523 33.026 119.523 36.963V45.7009H115.81V28.321H119.523V31.2017C120.571 28.8972 122.667 28.033 124.857 28.033Z" fill="#B4B2C9"/>
<path id="Vector_7" d="M133.81 27.8411C128.762 27.8411 124.762 31.778 124.762 36.9632C124.762 42.1484 128.857 46.0853 133.81 46.0853C138.857 46.0853 142.857 42.0523 142.857 36.9632C142.952 31.778 138.952 27.8411 133.81 27.8411ZM133.81 31.49C136.857 31.49 139.143 33.7945 139.143 36.9632C139.143 40.1319 136.762 42.4365 133.81 42.4365C130.762 42.4365 128.477 40.1319 128.477 36.9632C128.477 33.7945 130.857 31.49 133.81 31.49Z" fill="#B4B2C9"/>
<path id="Vector_8" d="M167.429 28.321L162 45.701H158.381L154.762 33.9863L151.143 45.701H147.523L142.095 28.321H146L149.333 40.3238L152.952 28.321H156.477L160.095 40.3238L163.429 28.321H167.429Z" fill="#B4B2C9"/>
<path id="Vector_9" d="M172.381 28.321H168.667V45.701H172.381V28.321Z" fill="#B4B2C9"/>
<path id="Vector_10" d="M65.9048 6.71606V10.749C63.4286 10.5569 60.5714 11.7092 60.5714 15.6461V24.3841H56.8571V7.00413H60.5714V9.88481C61.619 7.58026 63.7142 6.71606 65.9048 6.71606Z" fill="#B4B2C9"/>
<path id="Vector_11" fill-rule="evenodd" clip-rule="evenodd" d="M82.9523 30.5296V21.0234L79.9045 19.295C79.7139 19.5831 79.5235 19.8711 79.2378 20.0632C78.2854 20.8314 77.0473 21.4075 75.4282 21.4075C72.6664 21.4075 70.4759 19.9672 69.9045 17.2786H83.7136C83.7136 17.0385 83.7375 16.7744 83.7613 16.5104C83.7852 16.2463 83.8091 15.9823 83.8091 15.7422C83.8091 10.7491 80.2854 6.62012 75.1426 6.62012C69.8092 6.62012 66.0949 10.557 66.0949 15.7422C66.0949 20.9274 69.7139 24.8643 75.4282 24.8643C76.8568 24.8643 78.0949 24.5763 79.2378 24.0961V45.701H82.9523V36.387C82.9523 32.8341 84.8568 31.3938 87.3333 31.3938C89.6189 31.3938 91.1424 32.8341 91.1424 35.4267V45.701H94.8568V34.9466C94.8568 30.4335 92.0947 27.8409 88.2856 27.8409C85.9045 27.8409 84.0947 28.7051 82.9523 30.5296ZM79.9997 14.2059C79.4282 11.2292 77.333 9.98086 75.0473 9.98086C72.2854 9.98086 70.3806 11.6133 69.9045 14.2059H79.9997Z" fill="#B4B2C9"/>
<path id="Vector_12" d="M98.3811 19.199C97.5234 20.4474 96 21.3116 93.9045 21.3116C91.1432 21.3116 88.9523 19.9673 88.3811 17.1826H102.095C102.19 16.7025 102.19 16.1264 102.19 15.6463C102.19 10.6531 98.6667 6.52417 93.5234 6.52417C88.0955 6.52417 84.4765 10.5571 84.4765 15.6463C84.4765 20.8315 88.1901 24.7683 93.8099 24.7683C97.1432 24.7683 99.8099 23.328 101.333 21.0235L98.3811 19.199ZM93.6189 9.98094C95.9045 9.98094 98 11.2292 98.5712 14.206H88.3811C88.9523 11.6134 90.8568 9.98094 93.6189 9.98094Z" fill="#B4B2C9"/>
<path id="Vector_13" d="M140.952 21.4075C143.048 21.4075 144.571 20.4473 145.429 19.295L148.477 21.1195C146.857 23.52 144.286 24.8643 140.952 24.8643C135.238 24.8643 131.619 20.9274 131.619 15.7422C131.619 10.557 135.333 6.62012 140.667 6.62012C145.81 6.62012 149.333 10.7491 149.333 15.7422C149.333 16.2223 149.238 16.7985 149.238 17.2786H135.523C136 19.9672 138.19 21.4075 140.952 21.4075ZM145.523 14.2059C145.048 11.2292 142.857 9.98086 140.571 9.98086C137.81 9.98086 135.905 11.6133 135.333 14.2059H145.523Z" fill="#B4B2C9"/>
<path id="Vector_14" d="M168.667 24.3842H172.381V21.0234H168.667V24.3842Z" fill="#B4B2C9"/>
<path id="Vector_15" d="M29.1431 6.52417C26.7621 6.52417 24.9526 7.38837 23.8098 9.21279V7.19633V6.90826H20.0955V8.34859V24.2883H23.8098V14.9741C23.8098 11.4213 25.7146 9.98094 28.1907 9.98094C30.5717 9.98094 32.0003 11.3253 32.0003 14.0139V24.2883H35.7146V13.7258C35.8098 9.21279 33.0479 6.52417 29.1431 6.52417Z" fill="#B4B2C9"/>
<path id="Vector_16" d="M154.857 24.3842H151.143V7.00429H154.857V9.21279C156 7.38837 157.81 6.52417 160.19 6.52417C164 6.52417 166.762 9.11674 166.762 13.6298V24.2883H163.048V14.1099C163.048 11.5173 161.523 10.077 159.238 10.077C156.762 10.077 154.857 11.5173 154.857 15.0702V24.3842Z" fill="#B4B2C9"/>
<path id="Vector_17" d="M107.143 11.8054C107.143 10.5571 108.286 9.98094 109.619 9.98094C110.952 9.98094 112.095 10.5571 112.762 11.7093L116 10.077C114.762 7.86848 112.477 6.52417 109.619 6.52417C106.095 6.52417 103.333 8.54061 103.333 11.8054C103.333 15.4542 106.477 16.3184 109.143 17.0866C111.048 17.6627 112.571 18.0468 112.571 19.3911C112.571 20.7354 111.333 21.3116 109.619 21.3116C108 21.3116 106.667 20.6394 106 19.3911L102.667 21.0235C103.81 23.328 106.286 24.7683 109.523 24.7683C113.238 24.7683 116.286 22.8479 116.286 19.3911C116.286 15.6463 113.048 14.686 110.477 14.0139C108.762 13.5338 107.143 13.0537 107.143 11.8054Z" fill="#B4B2C9"/>
<path id="Vector_18" d="M124 9.98086C122.667 9.98086 121.523 10.557 121.523 11.8053C121.523 13.1496 123.143 13.5337 124.952 14.1098C127.619 14.878 130.762 15.7422 130.762 19.487C130.762 22.9438 127.81 24.8643 124 24.8643C120.667 24.8643 118.286 23.424 117.143 21.1195L120.477 19.487C121.143 20.7353 122.381 21.4075 124.095 21.4075C125.714 21.4075 127.048 20.8314 127.048 19.487C127.048 18.2388 125.429 17.7586 123.619 17.1825C120.952 16.4144 117.81 15.5502 117.81 11.9014C117.81 8.63658 120.571 6.62012 124.095 6.62012C126.857 6.62012 129.238 7.96442 130.477 10.173L127.238 11.8053C126.477 10.557 125.333 9.98086 124 9.98086Z" fill="#B4B2C9"/>
</g>
</g>
</g>
</g>
</g>
</g>
</g>
<defs>
<clipPath id="clip0_0_1">
<rect width="200" height="46.08" fill="white"/>
</clipPath>
<clipPath id="clip1_0_1">
<rect width="200" height="46.08" fill="white"/>
</clipPath>
<clipPath id="clip2_0_1">
<rect width="200" height="46.0905" fill="white" transform="translate(0 -0.00537109)"/>
</clipPath>
</defs>
</svg>
