<svg width="32" height="32" viewBox="0 0 32 32" fill="none" xmlns="http://www.w3.org/2000/svg">
<g clip-path="url(#clip0_1_118)">
<path d="M0 16C0 19.1645 0.938384 22.2579 2.69649 24.8891C4.45459 27.5203 6.95345 29.5711 9.87706 30.7821C12.8007 31.993 16.0177 32.3099 19.1215 31.6926C22.2251 31.0752 25.0761 29.5513 27.3137 27.3137C29.5513 25.0761 31.0752 22.2251 31.6926 19.1215C32.3099 16.0177 31.993 12.8007 30.7821 9.87706C29.5711 6.95345 27.5203 4.45459 24.8891 2.69649C22.2579 0.938384 19.1645 0 16 0C11.7566 0 7.68687 1.68571 4.68629 4.68629C1.68571 7.68687 0 11.7566 0 16ZM6.85714 14.8571H20.7429L14.3657 8.44914L16 6.85714L25.1429 16L16 25.1429L14.3657 23.512L20.7429 17.1429H6.85714V14.8571Z" fill="white"/>
</g>
<defs>
<clipPath id="clip0_1_118">
<rect width="32" height="32" fill="white"/>
</clipPath>
</defs>
</svg>
