<svg width="50" height="51" viewBox="0 0 50 51" fill="none" xmlns="http://www.w3.org/2000/svg">
<g id="03.svg" clip-path="url(#clip0_1_124)">
<path id="Vector" d="M24.9998 0.810096C18.5953 0.810096 12.1908 3.24772 7.31351 8.12506C-1.79112 17.2318 -2.39532 31.6659 5.503 41.481C5.06509 40.3075 4.97346 39.033 5.23902 37.8089C5.50459 36.5849 6.11616 35.4629 7.001 34.5765C7.98592 33.5929 9.25903 32.9494 10.635 32.7396C12.011 32.5297 13.4181 32.7645 14.6514 33.4097C12.7447 30.8006 11.8919 27.5684 12.2633 24.3582C12.6347 21.148 14.2029 18.1959 16.6549 16.0909C19.107 13.986 22.2626 12.8831 25.492 13.0023C28.7214 13.1214 31.7871 14.4539 34.0774 16.7339C35.219 17.8755 36.7673 18.5168 38.3818 18.5168C39.9962 18.5168 41.5446 17.8755 42.6862 16.7339C43.8278 15.5923 44.4691 14.0439 44.4691 12.4295C44.4691 10.815 43.8278 9.26665 42.6862 8.12506C40.3652 5.80099 37.608 3.95838 34.5728 2.70305C31.5376 1.44772 28.2844 0.804421 24.9998 0.810096ZM44.5008 10.146C44.9381 11.3194 45.0291 12.5937 44.7632 13.8173C44.4973 15.0409 43.8856 16.1624 43.0008 17.0485C42.0158 18.032 40.7427 18.6755 39.3667 18.8854C37.9907 19.0952 36.5837 18.8604 35.3504 18.2152C37.1641 20.6884 38.033 23.7291 37.7999 26.7872C37.5668 29.8454 36.2471 32.7192 34.0795 34.889C32.9379 36.0303 32.2964 37.5784 32.2962 39.1926C32.2961 39.9919 32.4535 40.7834 32.7593 41.5219C33.0651 42.2604 33.5133 42.9314 34.0784 43.4967C34.6436 44.062 35.3145 44.5104 36.0529 44.8164C36.7913 45.1223 37.5828 45.2799 38.3821 45.2799C39.9963 45.2801 41.5446 44.6391 42.6862 43.4977C51.7908 34.3931 52.395 19.959 44.4988 10.146H44.5008ZM11.6158 33.1056C10.8162 33.105 10.0243 33.2621 9.28547 33.5678C8.54661 33.8736 7.87528 34.322 7.30986 34.8874C6.74445 35.4528 6.29604 36.1242 5.9903 36.863C5.68455 37.6019 5.52746 38.3937 5.52801 39.1934C5.52746 39.993 5.68455 40.7849 5.9903 41.5237C6.29604 42.2626 6.74445 42.9339 7.30986 43.4993C7.87528 44.0647 8.54661 44.5131 9.28547 44.8189C10.0243 45.1246 10.8162 45.2817 11.6158 45.2812C12.4154 45.2817 13.2073 45.1246 13.9462 44.8189C14.685 44.5131 15.3564 44.0647 15.9218 43.4993C16.4872 42.9339 16.9356 42.2626 17.2413 41.5237C17.5471 40.7849 17.7042 39.993 17.7036 39.1934C17.7045 38.3937 17.5476 37.6018 17.2421 36.8628C16.9366 36.1239 16.4885 35.4524 15.9232 34.8868C15.358 34.3212 14.6868 33.8726 13.9481 33.5666C13.2093 33.2606 12.4175 33.1032 11.6179 33.1035L11.6158 33.1056ZM32.5961 36.162C30.3924 37.7773 27.7311 38.6482 24.9988 38.6482C22.2665 38.6482 19.6052 37.7773 17.4015 36.162C18.0461 37.3954 18.2805 38.8023 18.0707 40.1782C17.8609 41.554 17.2178 42.8271 16.2348 43.8123C15.3484 44.6973 14.2263 45.3088 13.0022 45.574C11.778 45.8392 10.5035 45.747 9.33028 45.3083C18.4474 52.6482 31.5502 52.6482 40.6652 45.3083C39.4923 45.7465 38.2182 45.8385 36.9945 45.5733C35.7708 45.3081 34.649 44.6969 33.7628 43.8123C32.7793 42.8274 32.1357 41.5543 31.9259 40.1783C31.716 38.8023 31.9508 37.3953 32.5961 36.162Z" fill="white"/>
</g>
<defs>
<clipPath id="clip0_1_124">
<rect width="50" height="50" fill="white" transform="translate(0 0.810059)"/>
</clipPath>
</defs>
</svg>
