<svg width="50" height="39" viewBox="0 0 50 39" fill="none" xmlns="http://www.w3.org/2000/svg">
<g id="01.svg" clip-path="url(#clip0_1_99)">
<path id="Vector" d="M44.3097 1.43344C43.7751 1.08762 43.1638 0.878398 42.5295 0.824179C41.8951 0.76996 41.2571 0.872402 40.6716 1.1225L21.4863 8.67847C21.0321 8.86333 20.5464 8.95836 20.056 8.95832H7.77363C6.74278 8.95832 5.75416 9.36782 5.02524 10.0967C4.29632 10.8257 3.88682 11.8143 3.88682 12.8452V13.1561H0V22.4845H3.88682V22.8887C3.91117 23.9033 4.3314 24.8681 5.0577 25.577C5.784 26.2859 6.75874 26.6825 7.77363 26.6822L12.4378 36.5703C12.7536 37.2362 13.2509 37.7995 13.8724 38.1955C14.4939 38.5915 15.2145 38.8042 15.9515 38.8091H17.9104C18.9359 38.8009 19.9166 38.3878 20.6388 37.6597C21.361 36.9317 21.7662 35.9478 21.7662 34.9223V27.0554L40.6716 34.6113C41.1367 34.7964 41.6326 34.8914 42.1331 34.8912C42.9095 34.8787 43.6657 34.641 44.3097 34.2071C44.8211 33.8618 45.243 33.3997 45.5404 32.859C45.8378 32.3183 46.0021 31.7145 46.0199 31.0977V4.63618C46.0171 4.00346 45.8598 3.38099 45.5617 2.82285C45.2637 2.26471 44.8339 1.78777 44.3097 1.43344ZM17.8794 12.8452V22.8887H7.77363V12.8452H17.8794ZM17.8794 34.9223H15.9204L12.0958 26.6822H17.8794V34.9223ZM22.9167 23.3551C22.5475 23.1665 22.1625 23.0104 21.7662 22.8887V12.6275C22.1587 12.5465 22.5436 12.4321 22.9167 12.2855L42.1331 4.63618V31.0044L22.9167 23.3551ZM46.1132 13.9335V21.7071C47.144 21.7071 48.1327 21.2976 48.8616 20.5687C49.5905 19.8398 50 18.8511 50 17.8203C50 16.7895 49.5905 15.8008 48.8616 15.0719C48.1327 14.343 47.144 13.9335 46.1132 13.9335Z" fill="white"/>
</g>
<defs>
<clipPath id="clip0_1_99">
<rect width="50" height="38" fill="white" transform="translate(0 0.810059)"/>
</clipPath>
</defs>
</svg>
