<svg width="44" height="42" viewBox="0 0 44 42" fill="none" xmlns="http://www.w3.org/2000/svg">
<g clip-path="url(#clip0_1_157)">
<path d="M22 4.09327C21.1665 4.09327 20.3671 4.42499 19.7777 5.01544C19.1883 5.6059 18.8572 6.40673 18.8572 7.24176C18.8572 8.07678 19.1883 8.87761 19.7777 9.46806C20.3671 10.0585 21.1665 10.3902 22 10.3902C22.8335 10.3902 23.6329 10.0585 24.2223 9.46806C24.8117 8.87761 25.1428 8.07678 25.1428 7.24176C25.1428 6.40673 24.8117 5.6059 24.2223 5.01544C23.6329 4.42499 22.8335 4.09327 22 4.09327ZM15.7142 7.24176C15.7142 5.57169 16.3765 3.97004 17.5553 2.78913C18.7342 1.60822 20.3329 0.944794 22 0.944794C23.6671 0.944794 25.2658 1.60822 26.4447 2.78913C27.6235 3.97004 28.2858 5.57169 28.2858 7.24176C28.2858 8.91181 27.6235 10.5135 26.4447 11.6944C25.2658 12.8752 23.6671 13.5387 22 13.5387C20.3329 13.5387 18.7342 12.8752 17.5553 11.6944C16.3765 10.5135 15.7142 8.91181 15.7142 7.24176ZM36.9286 5.66751C36.3034 5.66751 35.7038 5.9163 35.2618 6.35914C34.8198 6.80198 34.5714 7.4026 34.5714 8.02888C34.5714 8.65515 34.8198 9.25577 35.2618 9.6986C35.7038 10.1414 36.3034 10.3902 36.9286 10.3902C37.5537 10.3902 38.1533 10.1414 38.5954 9.6986C39.0374 9.25577 39.2858 8.65515 39.2858 8.02888C39.2858 7.4026 39.0374 6.80198 38.5954 6.35914C38.1533 5.9163 37.5537 5.66751 36.9286 5.66751ZM31.4286 8.02888C31.4286 7.30531 31.5708 6.58884 31.8472 5.92034C32.1237 5.25186 32.5288 4.64447 33.0395 4.13283C33.5502 3.62119 34.1565 3.21534 34.8238 2.93844C35.4911 2.66155 36.2063 2.51903 36.9286 2.51903C37.6508 2.51903 38.3661 2.66155 39.0333 2.93844C39.7006 3.21534 40.307 3.62119 40.8177 4.13283C41.3284 4.64447 41.7335 5.25186 42.0099 5.92034C42.2864 6.58884 42.4286 7.30531 42.4286 8.02888C42.4286 9.49018 41.8491 10.8916 40.8177 11.9249C39.7862 12.9582 38.3872 13.5387 36.9286 13.5387C35.4698 13.5387 34.0709 12.9582 33.0395 11.9249C32.0081 10.8916 31.4286 9.49018 31.4286 8.02888ZM4.71428 8.02888C4.71428 7.4026 4.96263 6.80198 5.40467 6.35914C5.84673 5.9163 6.44628 5.66751 7.07142 5.66751C7.69658 5.66751 8.29613 5.9163 8.73818 6.35914C9.18023 6.80198 9.42858 7.4026 9.42858 8.02888C9.42858 8.65515 9.18023 9.25577 8.73818 9.6986C8.29613 10.1414 7.69658 10.3902 7.07142 10.3902C6.44628 10.3902 5.84673 10.1414 5.40467 9.6986C4.96263 9.25577 4.71428 8.65515 4.71428 8.02888ZM7.07142 2.51903C5.61274 2.51903 4.21379 3.09954 3.18235 4.13283C2.15089 5.16612 1.57142 6.56757 1.57142 8.02888C1.57142 9.49018 2.15089 10.8916 3.18235 11.9249C4.21379 12.9582 5.61274 13.5387 7.07142 13.5387C8.53012 13.5387 9.92906 12.9582 10.9605 11.9249C11.9919 10.8916 12.5714 9.49018 12.5714 8.02888C12.5714 6.56757 11.9919 5.16612 10.9605 4.13283C9.92906 3.09954 8.53012 2.51903 7.07142 2.51903ZM10.4515 34.7988C9.74085 35.2681 8.91657 35.5359 8.0662 35.5737C7.21583 35.6115 6.3711 35.418 5.62168 35.0136C4.87225 34.6092 4.24609 34.0092 3.80966 33.277C3.37323 32.5449 3.14281 31.7081 3.14286 30.8554V20.6228C3.14286 20.4141 3.22564 20.2138 3.37299 20.0662C3.52034 19.9186 3.72019 19.8356 3.92858 19.8356H10.2629C10.4063 18.683 10.8666 17.593 11.5925 16.6872H3.92858C2.88665 16.6872 1.88741 17.1018 1.15065 17.8399C0.413902 18.5779 3.52617e-07 19.579 3.52617e-07 20.6228V30.8554C-0.000404976 32.2109 0.348637 33.5436 1.01332 34.7242C1.678 35.9049 2.63578 36.8937 3.79391 37.5946C4.95204 38.2957 6.27124 38.6851 7.62375 38.7254C8.97626 38.7657 10.3163 38.4554 11.5139 37.8245C11.023 36.8695 10.6656 35.8514 10.4515 34.7988ZM32.4861 37.8245C33.6837 38.4554 35.0237 38.7657 36.3762 38.7254C37.7288 38.6851 39.048 38.2957 40.2061 37.5946C41.3642 36.8937 42.322 35.9049 42.9867 34.7242C43.6514 33.5436 44.0004 32.2109 44 30.8554V20.6228C44 19.579 43.5861 18.5779 42.8493 17.8399C42.1126 17.1018 41.1134 16.6872 40.0714 16.6872H32.4075C33.1327 17.5934 33.593 18.6832 33.7369 19.8356H40.0714C40.2799 19.8356 40.4797 19.9186 40.627 20.0662C40.7744 20.2138 40.8572 20.4141 40.8572 20.6228V30.8554C40.8572 31.7081 40.6267 32.5449 40.1903 33.277C39.7539 34.0092 39.1278 34.6092 38.3783 35.0136C37.6289 35.418 36.7842 35.6115 35.9338 35.5737C35.0835 35.5359 34.2591 35.2681 33.5485 34.7988C33.3344 35.8513 32.977 36.8695 32.4861 37.8245ZM16.5 16.6872C15.4581 16.6872 14.4588 17.1018 13.7221 17.8399C12.9853 18.5779 12.5714 19.579 12.5714 20.6228V32.4296C12.5714 34.9347 13.5648 37.3372 15.333 39.1086C17.1012 40.8799 19.4994 41.875 22 41.875C24.5006 41.875 26.8988 40.8799 28.667 39.1086C30.4352 37.3372 31.4286 34.9347 31.4286 32.4296V20.6228C31.4286 19.579 31.0147 18.5779 30.2779 17.8399C29.5412 17.1018 28.5419 16.6872 27.5 16.6872H16.5ZM15.7142 20.6228C15.7142 20.4141 15.797 20.2138 15.9444 20.0662C16.0917 19.9186 16.2917 19.8356 16.5 19.8356H27.5C27.7083 19.8356 27.9083 19.9186 28.0556 20.0662C28.203 20.2138 28.2858 20.4141 28.2858 20.6228V32.4296C28.2858 34.0996 27.6235 35.7013 26.4447 36.8823C25.2658 38.0631 23.6671 38.7266 22 38.7266C20.3329 38.7266 18.7342 38.0631 17.5553 36.8823C16.3765 35.7013 15.7142 34.0996 15.7142 32.4296V20.6228Z" fill="white"/>
</g>
<defs>
<clipPath id="clip0_1_157">
<rect width="44" height="40.9302" fill="white" transform="translate(0 0.944794)"/>
</clipPath>
</defs>
</svg>
