<svg width="200" height="63" viewBox="0 0 200 63" fill="none" xmlns="http://www.w3.org/2000/svg">
<g clip-path="url(#clip0_1_89)">
<path d="M105.269 15.8035C105.269 18.0709 103.459 19.8974 101.213 19.8974C98.9663 19.8974 97.1567 18.0709 97.1567 15.8035C97.1567 13.5361 98.9039 11.7094 101.213 11.7094C103.522 11.7725 105.269 13.599 105.269 15.8035ZM88.5455 24.0544C88.5455 24.4322 88.5455 25.0621 88.5455 25.0621C88.5455 25.0621 86.6114 22.5428 82.4927 22.5428C75.6915 22.5428 70.3871 27.7705 70.3871 35.0136C70.3871 42.1939 75.6287 47.4847 82.4927 47.4847C86.6737 47.4847 88.5455 44.9024 88.5455 44.9024V45.9728C88.5455 46.4766 88.92 46.8546 89.4191 46.8546H94.4737V23.1726C94.4737 23.1726 89.856 23.1726 89.4191 23.1726C88.92 23.1726 88.5455 23.6135 88.5455 24.0544ZM88.5455 39.2336C87.6095 40.6193 85.7378 41.816 83.4915 41.816C79.4975 41.816 76.4399 39.2966 76.4399 35.0136C76.4399 30.7307 79.4975 28.2113 83.4915 28.2113C85.6754 28.2113 87.6719 29.4711 88.5455 30.7937V39.2336ZM98.2179 23.1726H104.208V46.8546H98.2179V23.1726ZM187.699 22.5428C183.581 22.5428 181.646 25.0621 181.646 25.0621V11.7725H175.656V46.8546C175.656 46.8546 180.274 46.8546 180.71 46.8546C181.21 46.8546 181.584 46.4137 181.584 45.9728V44.9024C181.584 44.9024 183.519 47.4847 187.637 47.4847C194.438 47.4847 199.743 42.1939 199.743 35.0136C199.743 27.8335 194.438 22.5428 187.699 22.5428ZM186.701 41.753C184.392 41.753 182.583 40.5563 181.646 39.1707V30.7307C182.583 29.4711 184.58 28.1483 186.701 28.1483C190.694 28.1483 193.752 30.6678 193.752 34.9507C193.752 39.2336 190.694 41.753 186.701 41.753ZM172.536 32.8092V46.9175H166.546V33.502C166.546 29.597 165.298 28.0224 161.928 28.0224C160.119 28.0224 158.246 28.9672 157.061 30.3528V46.8546H151.071V23.1726H155.813C156.312 23.1726 156.687 23.6135 156.687 24.0544V25.0621C158.434 23.2356 160.743 22.5428 163.052 22.5428C165.672 22.5428 167.856 23.2985 169.603 24.8102C171.725 26.5737 172.536 28.8412 172.536 32.8092ZM136.531 22.5428C132.413 22.5428 130.479 25.0621 130.479 25.0621V11.7725H124.488V46.8546C124.488 46.8546 129.106 46.8546 129.543 46.8546C130.042 46.8546 130.416 46.4137 130.416 45.9728V44.9024C130.416 44.9024 132.351 47.4847 136.469 47.4847C143.271 47.4847 148.574 42.1939 148.574 35.0136C148.637 27.8335 143.333 22.5428 136.531 22.5428ZM135.533 41.753C133.225 41.753 131.415 40.5563 130.479 39.1707V30.7307C131.415 29.4711 133.411 28.1483 135.533 28.1483C139.527 28.1483 142.584 30.6678 142.584 34.9507C142.584 39.2336 139.527 41.753 135.533 41.753ZM119.309 22.5428C121.119 22.5428 122.055 22.8576 122.055 22.8576V28.4634C122.055 28.4634 117.063 26.7627 113.943 30.3528V46.9175H107.952V23.1726C107.952 23.1726 112.57 23.1726 113.007 23.1726C113.506 23.1726 113.88 23.6135 113.88 24.0544V25.0621C115.003 23.7394 117.437 22.5428 119.309 22.5428ZM57.0962 44.7132C56.784 43.9576 56.4719 43.1387 56.1602 42.4458C55.6607 41.3121 55.1616 40.2414 54.7247 39.2336L54.6624 39.1707C50.3567 29.7229 45.739 20.1493 40.872 10.7017L40.6848 10.3238C40.1856 9.37906 39.6864 8.37132 39.1872 7.36356C38.5633 6.22985 37.9392 5.03311 36.9408 3.89942C34.944 1.38004 32.0736 -0.00561523 29.016 -0.00561523C25.896 -0.00561523 23.088 1.38004 21.0288 3.77344C20.0928 4.90715 19.4064 6.10387 18.7824 7.2376C18.2831 8.24534 17.784 9.25308 17.2848 10.1979L17.0976 10.5757C12.2928 20.0234 7.6128 29.597 3.30719 39.0447L3.24479 39.1707C2.80799 40.1784 2.30879 41.2491 1.8096 42.3828C1.49759 43.0756 1.18559 43.8313 0.873589 44.6502C0.0623894 46.9809 -0.187211 49.1853 0.124789 51.4527C0.811191 56.1766 3.93119 60.1446 8.23679 61.9081C9.8592 62.6007 11.544 62.9157 13.2912 62.9157C13.7905 62.9157 14.4144 62.8528 14.9136 62.7899C16.9728 62.5378 19.0944 61.8452 21.1536 60.6484C23.712 59.1994 26.1456 57.1212 28.8912 54.098C31.6369 57.1212 34.1328 59.1994 36.6288 60.6484C38.6881 61.8452 40.8097 62.5378 42.8689 62.7899C43.3681 62.8528 43.9918 62.9157 44.4915 62.9157C46.2387 62.9157 47.9858 62.6007 49.5455 61.9081C53.9135 60.1446 56.9711 56.1133 57.6576 51.4527C58.1567 49.2482 57.9074 47.0438 57.0962 44.7132ZM28.9536 47.9885C25.584 43.7055 23.4 39.6745 22.6512 36.2734C22.3392 34.8247 22.2769 33.5651 22.464 32.4314C22.5888 31.4236 22.9631 30.5418 23.4624 29.786C24.648 28.0854 26.6448 27.0146 28.9536 27.0146C31.2624 27.0146 33.3217 28.0224 34.4448 29.786C34.944 30.5418 35.3184 31.4236 35.4433 32.4314C35.6305 33.5651 35.5681 34.8878 35.256 36.2734C34.5072 39.6116 32.3233 43.6426 28.9536 47.9885ZM53.8511 50.9489C53.4144 54.2238 51.2303 57.0583 48.1728 58.3176C46.6754 58.9478 45.0529 59.1365 43.4303 58.9478C41.8704 58.7585 40.3104 58.2547 38.6881 57.31C36.4417 56.0503 34.1953 54.098 31.5744 51.2006C35.6928 46.0991 38.1888 41.4381 39.1248 37.2811C39.5617 35.3287 39.624 33.5651 39.4369 31.9274C39.1872 30.3528 38.6256 28.9042 37.752 27.6445C35.8176 24.8102 32.5728 23.1726 28.9536 23.1726C25.3344 23.1726 22.0896 24.8731 20.1553 27.6445C19.2816 28.9042 18.72 30.3528 18.4704 31.9274C18.2208 33.5651 18.2831 35.3916 18.7824 37.2811C19.7184 41.4381 22.2769 46.162 26.3328 51.2635C23.7744 54.1609 21.4656 56.1133 19.2192 57.3729C17.5967 58.3176 16.0367 58.8219 14.4767 59.0107C12.792 59.1994 11.1696 58.9478 9.73441 58.381C6.67679 57.1212 4.4928 54.2867 4.05599 51.0118C3.86879 49.437 3.9936 47.8627 4.61761 46.0991C4.80479 45.469 5.11679 44.8394 5.42878 44.0835C5.86562 43.0756 6.36479 42.0049 6.86401 40.9342L6.92639 40.8082C11.232 31.4236 15.8496 21.8499 20.6544 12.5283L20.8417 12.1503C21.3408 11.2056 21.84 10.1979 22.3392 9.25308C22.8384 8.24534 23.4 7.30055 24.0864 6.48176C25.3969 4.97015 27.144 4.15135 29.0784 4.15135C31.0128 4.15135 32.76 4.97015 34.0704 6.48176C34.7569 7.30055 35.3184 8.24534 35.8176 9.25308C36.3169 10.1979 36.8161 11.2056 37.3153 12.1503L37.5024 12.5283C42.2448 21.9129 46.8624 31.4865 51.1681 40.8712V40.9342C51.6672 41.9419 52.1039 43.0756 52.6031 44.0835C52.9153 44.8394 53.2273 45.469 53.4144 46.0991C53.9135 47.7364 54.1009 49.3111 53.8511 50.9489Z" fill="#B4B2C9"/>
</g>
<defs>
<clipPath id="clip0_1_89">
<rect width="200" height="62.9213" fill="white" transform="translate(0 -0.00561523)"/>
</clipPath>
</defs>
</svg>
